<?xml version="1.0" encoding="UTF-8" standalone="no"?>
<!-- Created with Inkscape (http://www.inkscape.org/) -->

<svg
   width="91.311012mm"
   height="46.983551mm"
   viewBox="0 0 91.311012 46.983551"
   version="1.1"
   id="svg1"
   xml:space="preserve"
   xmlns="http://www.w3.org/2000/svg"
   xmlns:svg="http://www.w3.org/2000/svg"><defs
     id="defs1" /><g
     id="layer1"
     transform="translate(-93.642037,-140.43292)"><g
       id="g24"><g
         id="g38"><g
           id="g34"><path
             style="fill:#ffcd4f;fill-opacity:1"
             d="m 163.04206,158.82661 c -0.20145,-0.2226 -0.51301,-1.0829 -0.69237,-1.9118 -0.48054,-2.22081 -1.62187,-10.78084 -1.77719,-13.32905 -0.12566,-2.06173 -0.10352,-2.23946 0.33353,-2.67651 1.26092,-1.26091 1.82316,-0.16997 2.63014,5.10338 0.40455,2.64364 0.67686,6.44683 0.67763,9.46409 9e-4,3.50282 -0.28741,4.32707 -1.17174,3.34989 z"
             id="path32" /><path
             style="fill:#ffcd4f;fill-opacity:1"
             d="m 166.25369,161.29058 c -0.0726,-0.18928 -0.016,-0.73151 0.12585,-1.20497 0.31386,-1.04757 2.58223,-5.61321 3.88001,-7.80943 0.52069,-0.88116 0.9467,-1.64787 0.9467,-1.70379 0,-0.0559 0.34413,-0.63964 0.76472,-1.29714 0.4206,-0.65749 0.76472,-1.23702 0.76472,-1.28783 0,-0.0508 0.40426,-0.73715 0.89837,-1.52519 0.93945,-1.49834 1.28067,-1.67489 2.11188,-1.09268 0.66169,0.46346 0.61925,0.76185 -0.36597,2.57326 -0.46836,0.86112 -1.06476,1.95895 -1.32533,2.43963 -0.26057,0.48068 -0.67914,1.21809 -0.93017,1.63868 -0.25102,0.4206 -0.56579,0.96136 -0.69949,1.2017 -0.3596,0.64644 -0.98519,1.6313 -1.68812,2.65761 -0.34268,0.50032 -0.62306,0.96972 -0.62306,1.0431 0,0.12718 -0.57885,1.02191 -2.30584,3.56411 -0.78814,1.16017 -1.31312,1.43138 -1.55427,0.80294 z"
             id="path31" /><path
             style="fill:#ffcd4f;fill-opacity:1"
             d="m 169.31885,163.49189 c -0.19954,-0.52001 0.0302,-0.84222 0.93482,-1.31095 0.46384,-0.24034 1.86322,-1.00232 3.10975,-1.6933 1.24653,-0.69098 2.29231,-1.25632 2.32396,-1.25632 0.0317,0 1.85591,-1.08263 4.05391,-2.40584 2.96495,-1.78491 4.11326,-2.3694 4.44926,-2.2647 0.89727,0.27961 1.01434,0.9618 0.28902,1.68411 -1.11219,1.10755 -10.67347,6.27861 -13.2529,7.16761 -1.42963,0.49272 -1.74419,0.50581 -1.90782,0.0794 z"
             id="path30" /></g><path
           style="fill:#000000"
           d="m 151.3236,170.59284 v -10.26907 h 2.09391 2.09391 l -0.0729,6.02919 -0.0729,6.02919 0.76471,-0.93939 c 0.4206,-0.51666 1.68888,-1.95163 2.8184,-3.18881 l 2.05368,-2.24942 h 2.37076 c 1.30391,0 2.37076,0.0474 2.37076,0.10537 0,0.058 -1.27817,1.49655 -2.84038,3.19688 -1.56221,1.70033 -2.84038,3.17278 -2.84038,3.2721 0,0.0993 1.32733,1.95499 2.94962,4.12372 1.6223,2.16872 2.94963,3.99499 2.94963,4.05837 0,0.0634 -1.10142,0.0874 -2.4476,0.0535 l -2.44759,-0.0618 -1.64911,-2.30596 c -0.90701,-1.26828 -1.80418,-2.53983 -1.99372,-2.82566 l -0.34462,-0.5197 -0.80246,0.61206 -0.80246,0.61207 v 2.26822 2.26822 h -2.07566 -2.07566 z"
           id="path29" /><path
           style="fill:#000000"
           d="m 139.5251,173.43321 v -7.42868 h 1.62396 c 1.77961,0 1.70172,-0.0627 1.99815,1.60723 l 0.14956,0.84251 0.8191,-0.89609 c 1.04081,-1.13863 2.40146,-1.76116 3.86285,-1.76734 0.6238,-0.003 1.17841,0.0689 1.23246,0.15907 0.0541,0.0901 0.0353,0.98837 -0.0417,1.99609 l -0.14,1.83223 -1.42529,0.0311 c -1.72914,0.0378 -2.81457,0.6186 -3.41007,1.82475 -0.33916,0.68694 -0.41508,1.48066 -0.48035,5.02184 l -0.0775,4.20595 h -2.05556 -2.05555 z"
           id="path28" /><path
           id="path26"
           style="fill:#000000"
           d="m 130.19619,165.81882 c -0.29585,0.001 -0.60643,0.0123 -0.93276,0.0315 -1.92399,0.11327 -4.38637,0.73079 -4.87981,1.22422 -0.20249,0.2025 1.048,2.86235 1.34566,2.86235 0.0996,0 0.76195,-0.20018 1.47174,-0.44493 0.70979,-0.24475 1.81833,-0.45192 2.46393,-0.45992 1.40642,-0.0179 2.14952,0.56388 2.35748,1.84537 l 0.13126,0.8077 -1.83141,0.004 c -2.33559,0.005 -4.62277,0.4887 -5.71076,1.20871 -1.04771,0.69333 -1.68069,2.0027 -1.68569,3.48506 -0.008,2.4478 1.03073,4.06962 2.95124,4.60799 2.06994,0.58026 4.574,0.0527 5.91695,-1.24695 l 0.68058,-0.65888 0.35554,0.88832 0.35501,0.88832 h 1.53117 1.53118 v -5.31337 c 0,-6.23263 -0.15374,-7.074 -1.52136,-8.30957 -1.10188,-0.99548 -2.45899,-1.42998 -4.52995,-1.42007 z m 1.90014,8.25479 -0.0124,0.71779 c -0.0206,1.2014 -0.48731,2.20089 -1.27589,2.7311 h -5.2e-4 c -0.96745,0.65049 -2.46247,0.68048 -3.08095,0.062 -0.63555,-0.63556 -0.57424,-1.76929 0.13384,-2.47737 0.56684,-0.56684 0.88652,-0.66083 3.0887,-0.90589 z" /><path
           style="fill:#000000"
           d="m 96.351784,181.09504 c -0.612613,-0.0975 -1.47292,-0.29582 -1.911793,-0.44066 l -0.797952,-0.26335 v -1.73098 c 0,-0.95204 0.07374,-1.72973 0.163868,-1.72819 0.09013,0.002 0.9296,0.24733 1.865494,0.54622 2.785799,0.88969 5.180829,0.63529 5.180829,-0.55028 0,-0.57735 -1.118309,-1.36002 -3.162927,-2.21363 -2.155515,-0.8999 -3.459058,-2.07698 -3.828069,-3.45668 -0.810577,-3.03068 1.138117,-5.1477 4.98083,-5.41109 1.727606,-0.11841 4.180886,0.27076 5.546096,0.87979 l 0.5863,0.26155 -0.55218,1.31094 c -0.3037,0.72102 -0.63332,1.3964 -0.7325,1.50084 -0.10106,0.10643 -0.78297,-0.0136 -1.55136,-0.27311 -1.32935,-0.44893 -3.074623,-0.60144 -3.780961,-0.33039 -0.513577,0.19708 -0.423299,1.11761 0.145998,1.48868 0.270382,0.17624 1.330634,0.67104 2.356113,1.09955 3.1967,1.3358 4.14725,2.45263 4.14039,4.86469 -0.006,2.088 -1.20208,3.63874 -3.24806,4.21096 -1.12526,0.31472 -4.089489,0.44379 -5.400116,0.23514 z"
           id="path25" /><path
           id="path1"
           style="fill:#000000"
           d="m 115.72679,165.8953 c -1.41742,0 -1.80479,0.0875 -2.68976,0.60772 -0.56859,0.33424 -1.14901,0.82307 -1.28985,1.08623 -0.23998,0.44839 -0.27519,0.41378 -0.55707,-0.55293 l -0.30075,-1.03198 h -1.74098 -1.7415 v 10.70632 10.70581 h 2.07584 2.07533 v -3.94291 -3.94343 l 0.81959,0.65525 c 1.51745,1.21285 4.07258,1.38214 5.84563,0.38758 1.83291,-1.02814 2.86643,-3.16073 3.08922,-6.37481 0.24354,-3.51324 -0.83241,-6.38765 -2.86029,-7.64139 -0.94419,-0.58375 -1.26366,-0.66146 -2.72541,-0.66146 z m -1.3839,3.37292 c 0.4097,-0.004 0.8278,0.0759 1.2113,0.25063 1.03448,0.47134 1.35702,1.40266 1.35702,3.91449 0,2.58874 -0.30692,3.46612 -1.41283,4.038 -1.15155,0.59549 -2.30795,0.3086 -3.10989,-0.77205 -0.82305,-1.10908 -0.93506,-4.90394 -0.18604,-6.30349 0.37655,-0.70358 1.23911,-1.11873 2.14044,-1.12758 z" /></g><g
         id="g37"
         transform="matrix(2.2963981,0,0,2.2963981,-263.89071,-109.06948)"
         style="fill:#000000"><path
           style="fill:#000000;fill-opacity:1"
           d="m 163.04206,158.82661 c -0.20145,-0.2226 -0.51301,-1.0829 -0.69237,-1.9118 -0.48054,-2.22081 -1.62187,-10.78084 -1.77719,-13.32905 -0.12566,-2.06173 -0.10352,-2.23946 0.33353,-2.67651 1.26092,-1.26091 1.82316,-0.16997 2.63014,5.10338 0.40455,2.64364 0.67686,6.44683 0.67763,9.46409 9e-4,3.50282 -0.28741,4.32707 -1.17174,3.34989 z"
           id="path35" /><path
           style="fill:#000000;fill-opacity:1"
           d="m 166.25369,161.29058 c -0.0726,-0.18928 -0.016,-0.73151 0.12585,-1.20497 0.31386,-1.04757 2.58223,-5.61321 3.88001,-7.80943 0.52069,-0.88116 0.9467,-1.64787 0.9467,-1.70379 0,-0.0559 0.34413,-0.63964 0.76472,-1.29714 0.4206,-0.65749 0.76472,-1.23702 0.76472,-1.28783 0,-0.0508 0.40426,-0.73715 0.89837,-1.52519 0.93945,-1.49834 1.28067,-1.67489 2.11188,-1.09268 0.66169,0.46346 0.61925,0.76185 -0.36597,2.57326 -0.46836,0.86112 -1.06476,1.95895 -1.32533,2.43963 -0.26057,0.48068 -0.67914,1.21809 -0.93017,1.63868 -0.25102,0.4206 -0.56579,0.96136 -0.69949,1.2017 -0.3596,0.64644 -0.98519,1.6313 -1.68812,2.65761 -0.34268,0.50032 -0.62306,0.96972 -0.62306,1.0431 0,0.12718 -0.57885,1.02191 -2.30584,3.56411 -0.78814,1.16017 -1.31312,1.43138 -1.55427,0.80294 z"
           id="path36" /><path
           style="fill:#000000;fill-opacity:1"
           d="m 169.31885,163.49189 c -0.19954,-0.52001 0.0302,-0.84222 0.93482,-1.31095 0.46384,-0.24034 1.86322,-1.00232 3.10975,-1.6933 1.24653,-0.69098 2.29231,-1.25632 2.32396,-1.25632 0.0317,0 1.85591,-1.08263 4.05391,-2.40584 2.96495,-1.78491 4.11326,-2.3694 4.44926,-2.2647 0.89727,0.27961 1.01434,0.9618 0.28902,1.68411 -1.11219,1.10755 -10.67347,6.27861 -13.2529,7.16761 -1.42963,0.49272 -1.74419,0.50581 -1.90782,0.0794 z"
           id="path37" /></g><g
         id="g40"
         transform="matrix(2.2963981,0,0,2.2963981,-341.11241,-114.65831)"
         style="fill:#ffcd4f;fill-opacity:1"><path
           style="fill:#ffcd4f;fill-opacity:1"
           d="m 163.04206,158.82661 c -0.20145,-0.2226 -0.51301,-1.0829 -0.69237,-1.9118 -0.48054,-2.22081 -1.62187,-10.78084 -1.77719,-13.32905 -0.12566,-2.06173 -0.10352,-2.23946 0.33353,-2.67651 1.26092,-1.26091 1.82316,-0.16997 2.63014,5.10338 0.40455,2.64364 0.67686,6.44683 0.67763,9.46409 9e-4,3.50282 -0.28741,4.32707 -1.17174,3.34989 z"
           id="path38" /><path
           style="fill:#ffcd4f;fill-opacity:1"
           d="m 166.25369,161.29058 c -0.0726,-0.18928 -0.016,-0.73151 0.12585,-1.20497 0.31386,-1.04757 2.58223,-5.61321 3.88001,-7.80943 0.52069,-0.88116 0.9467,-1.64787 0.9467,-1.70379 0,-0.0559 0.34413,-0.63964 0.76472,-1.29714 0.4206,-0.65749 0.76472,-1.23702 0.76472,-1.28783 0,-0.0508 0.40426,-0.73715 0.89837,-1.52519 0.93945,-1.49834 1.28067,-1.67489 2.11188,-1.09268 0.66169,0.46346 0.61925,0.76185 -0.36597,2.57326 -0.46836,0.86112 -1.06476,1.95895 -1.32533,2.43963 -0.26057,0.48068 -0.67914,1.21809 -0.93017,1.63868 -0.25102,0.4206 -0.56579,0.96136 -0.69949,1.2017 -0.3596,0.64644 -0.98519,1.6313 -1.68812,2.65761 -0.34268,0.50032 -0.62306,0.96972 -0.62306,1.0431 0,0.12718 -0.57885,1.02191 -2.30584,3.56411 -0.78814,1.16017 -1.31312,1.43138 -1.55427,0.80294 z"
           id="path39" /><path
           style="fill:#ffcd4f;fill-opacity:1"
           d="m 169.31885,163.49189 c -0.19954,-0.52001 0.0302,-0.84222 0.93482,-1.31095 0.46384,-0.24034 1.86322,-1.00232 3.10975,-1.6933 1.24653,-0.69098 2.29231,-1.25632 2.32396,-1.25632 0.0317,0 1.85591,-1.08263 4.05391,-2.40584 2.96495,-1.78491 4.11326,-2.3694 4.44926,-2.2647 0.89727,0.27961 1.01434,0.9618 0.28902,1.68411 -1.11219,1.10755 -10.67347,6.27861 -13.2529,7.16761 -1.42963,0.49272 -1.74419,0.50581 -1.90782,0.0794 z"
           id="path40" /></g></g></g></svg>
